<svg width="1584" height="396" viewBox="0 0 1584 396" fill="none" xmlns="http://www.w3.org/2000/svg">
  <defs>
    <linearGradient id="minimalBg" x1="0" y1="0" x2="1584" y2="396" gradientUnits="userSpaceOnUse">
      <stop offset="0" stop-color="#09090F"/>
      <stop offset="0.62" stop-color="#0C0D12"/>
      <stop offset="1" stop-color="#11131A"/>
    </linearGradient>
    <radialGradient id="minimalAmber" cx="0" cy="0" r="1" gradientUnits="userSpaceOnUse" gradientTransform="translate(314 112) rotate(10) scale(472 202)">
      <stop stop-color="#E8A838" stop-opacity="0.18"/>
      <stop offset="1" stop-color="#E8A838" stop-opacity="0"/>
    </radialGradient>
    <radialGradient id="minimalTeal" cx="0" cy="0" r="1" gradientUnits="userSpaceOnUse" gradientTransform="translate(1240 258) rotate(-8) scale(412 184)">
      <stop stop-color="#56C4B8" stop-opacity="0.14"/>
      <stop offset="1" stop-color="#56C4B8" stop-opacity="0"/>
    </radialGradient>
    <linearGradient id="minimalRule" x1="348" y1="0" x2="912" y2="0" gradientUnits="userSpaceOnUse">
      <stop stop-color="#E8A838"/>
      <stop offset="1" stop-color="#56C4B8"/>
    </linearGradient>
  </defs>

  <rect width="1584" height="396" fill="url(#minimalBg)"/>
  <rect width="1584" height="396" fill="url(#minimalAmber)"/>
  <rect width="1584" height="396" fill="url(#minimalTeal)"/>

  <g opacity="0.12">
    <path d="M0 78.5H1584" stroke="#F5F0E8"/>
    <path d="M0 198.5H1584" stroke="#F5F0E8" stroke-opacity="0.65"/>
    <path d="M0 318.5H1584" stroke="#F5F0E8" stroke-opacity="0.75"/>
    <path d="M188.5 0V396" stroke="#F5F0E8" stroke-opacity="0.5"/>
    <path d="M396.5 0V396" stroke="#F5F0E8" stroke-opacity="0.4"/>
    <path d="M604.5 0V396" stroke="#F5F0E8" stroke-opacity="0.35"/>
    <path d="M812.5 0V396" stroke="#F5F0E8" stroke-opacity="0.3"/>
    <path d="M1020.5 0V396" stroke="#F5F0E8" stroke-opacity="0.3"/>
    <path d="M1228.5 0V396" stroke="#F5F0E8" stroke-opacity="0.3"/>
    <path d="M1436.5 0V396" stroke="#F5F0E8" stroke-opacity="0.35"/>
  </g>

  <g opacity="0.58">
    <rect x="70" y="52" width="68" height="68" rx="20" fill="#11131A" stroke="#2A2A44"/>
    <text x="104" y="96" fill="#F5F0E8" font-family="Inter, Helvetica Neue, Arial, sans-serif" font-size="28" font-weight="800" text-anchor="middle">GB</text>
  </g>

  <g transform="translate(64 0)">
    <text x="348" y="92" fill="#E8A838" font-family="JetBrains Mono, Menlo, Monaco, Consolas, monospace" font-size="18" font-weight="700" letter-spacing="2.4">APPLICATION ENGINEER</text>
    <text x="348" y="156" fill="#F5F0E8" font-family="Inter, Helvetica Neue, Arial, sans-serif" font-size="62" font-weight="800">Ghassen Bargougui</text>
    <path d="M348 202H912" stroke="url(#minimalRule)" stroke-width="3" stroke-linecap="round"/>
    <text x="348" y="248" fill="#D5CFC3" font-family="Inter, Helvetica Neue, Arial, sans-serif" font-size="24" font-weight="500">Backend, APIs, full-stack, and cloud delivery.</text>
  </g>

  <g opacity="0.96" transform="translate(64 0)">
    <rect x="348" y="286" width="46" height="46" rx="14" fill="#12131A" stroke="url(#chipStroke)"/>
    <g transform="translate(371 309)">
      <g transform="scale(0.195)">
        <g transform="translate(-64 -64)">
          <path fill="#0074BD" d="M47.617 98.12s-4.767 2.774 3.397 3.71c9.892 1.13 14.947.968 25.845-1.092c0 0 2.871 1.795 6.873 3.351c-24.439 10.47-55.308-.607-36.115-5.969zm-2.988-13.665s-5.348 3.959 2.823 4.805c10.567 1.091 18.91 1.18 33.354-1.6c0 0 1.993 2.025 5.132 3.131c-29.542 8.64-62.446.68-41.309-6.336z"/><path fill="#EA2D2E" d="M69.802 61.271c6.025 6.935-1.58 13.17-1.58 13.17s15.289-7.891 8.269-17.777c-6.559-9.215-11.587-13.792 15.635-29.58c0 .001-42.731 10.67-22.324 34.187z"/><path fill="#0074BD" d="M102.123 108.229s3.529 2.91-3.888 5.159c-14.102 4.272-58.706 5.56-71.094.171c-4.451-1.938 3.899-4.625 6.526-5.192c2.739-.593 4.303-.485 4.303-.485c-4.953-3.487-32.013 6.85-13.743 9.815c49.821 8.076 90.817-3.637 77.896-9.468zM49.912 70.294s-22.686 5.389-8.033 7.348c6.188.828 18.518.638 30.011-.326c9.39-.789 18.813-2.474 18.813-2.474s-3.308 1.419-5.704 3.053c-23.042 6.061-67.544 3.238-54.731-2.958c10.832-5.239 19.644-4.643 19.644-4.643zm40.697 22.747c23.421-12.167 12.591-23.86 5.032-22.285c-1.848.385-2.677.72-2.677.72s.688-1.079 2-1.543c14.953-5.255 26.451 15.503-4.823 23.725c0-.002.359-.327.468-.617z"/><path fill="#EA2D2E" d="M76.491 1.587S89.459 14.563 64.188 34.51c-20.266 16.006-4.621 25.13-.007 35.559c-11.831-10.673-20.509-20.07-14.688-28.815C58.041 28.42 81.722 22.195 76.491 1.587z"/><path fill="#0074BD" d="M52.214 126.021c22.476 1.437 57-.8 57.817-11.436c0 0-1.571 4.032-18.577 7.231c-19.186 3.612-42.854 3.191-56.887.874c0 .001 2.875 2.381 17.647 3.331z"/>
        </g>
      </g>
    </g>
    <rect x="406" y="286" width="46" height="46" rx="14" fill="#12131A" stroke="#2F3546"/>
    <g transform="translate(429 309)">
      <g transform="scale(0.92)">
        <g transform="translate(-12 -12)">
          <path fill="#6DB33F" d="M21.8537 1.4158a10.4504 10.4504 0 0 1-1.284 2.2471A11.9666 11.9666 0 1 0 3.8518 20.7757l.4445.3951a11.9543 11.9543 0 0 0 19.6316-8.2971c.3457-3.0126-.568-6.8649-2.0743-11.458zM5.5805 20.8745a1.0174 1.0174 0 1 1-.1482-1.4323 1.0396 1.0396 0 0 1 .1482 1.4323zm16.1991-3.5806c-2.9385 3.9263-9.2601 2.5928-13.2852 2.7904 0 0-.7161.0494-1.4323.1481 0 0 .2717-.1234.6174-.2469 2.8398-.9877 4.1732-1.1853 5.9018-2.0743 3.2349-1.6545 6.4698-5.2844 7.1118-9.0379-1.2347 3.6053-4.9881 6.7167-8.3959 7.9761-2.3459.8643-6.5685 1.7039-6.5685 1.7039l-.1729-.0988c-2.8645-1.4076-2.9632-7.6304 2.2718-9.6306 2.2966-.889 4.4696-.395 6.9637-.9877 2.6422-.6174 5.7043-2.5929 6.939-5.1857 1.3828 4.1732 3.062 10.643.0493 14.6434z"/>
        </g>
      </g>
    </g>
    <rect x="464" y="286" width="46" height="46" rx="14" fill="#151625" stroke="#5A6396"/>
    <g transform="translate(487 309)">
      <g transform="scale(0.92)">
        <g transform="translate(-12.2 -19.95)">
          <path fill="#5A6396" d="M24.399 19.918C24.393 19.888 24.383 19.859 24.369 19.832L24.359 19.813C24.344 19.785 24.325 19.759 24.303 19.736L20.94 16.292L21.888 15.579C22.043 15.535 22.151 15.393 22.155 15.229L22.155 12.314L23.051 11.396C23.241 11.202 23.154 10.871 22.895 10.799C22.865 10.791 22.835 10.787 22.804 10.787L21.85 10.787C21.832 10.785 21.813 10.785 21.794 10.787L17.755 10.787C17.68 10.787 17.607 10.811 17.547 10.857L16.441 11.696L12.445 7.599C12.422 7.577 12.398 7.559 12.371 7.544L12.351 7.534C12.324 7.519 12.296 7.509 12.266 7.502C12.245 7.5 12.223 7.5 12.202 7.502L0.349 7.502C0.081 7.502 -0.087 7.799 0.047 8.037C0.062 8.064 0.081 8.089 0.103 8.112L8.953 17.172L2.214 22.092C1.995 22.251 2.026 22.593 2.27 22.708C2.316 22.73 2.366 22.741 2.416 22.741L12.199 22.749C12.22 22.751 12.241 22.751 12.262 22.749L12.273 22.749C12.291 22.745 12.308 22.74 12.325 22.734L12.336 22.734C12.354 22.726 12.372 22.716 12.389 22.705L12.402 22.696L13.517 21.864L23.805 32.396C23.995 32.59 24.319 32.501 24.388 32.235C24.398 32.198 24.402 32.159 24.399 32.119L24.399 19.985C24.401 19.963 24.401 19.941 24.399 19.918ZM23.215 19.633L16.47 19.633L20.364 16.719L23.215 19.633ZM21.444 14.878L19.647 14.878L21.439 13.044L21.444 14.878ZM12.552 14.878L12.552 8.708L18.57 14.868L12.552 14.878ZM17.876 11.499L21.444 11.499L21.444 12.034L19.1 14.418L16.935 12.201L17.876 11.499ZM11.849 8.209L11.849 19.129L1.188 8.209L11.849 8.209ZM3.501 22.02L9.449 17.677L11.849 20.128L11.849 22.027L3.501 22.02ZM12.548 15.596L20.68 15.596L12.547 21.682L12.548 15.596ZM23.702 31.263L14.08 21.413L15.511 20.342L23.702 20.342L23.702 31.263Z"/>
        </g>
      </g>
    </g>
    <rect x="522" y="286" width="46" height="46" rx="14" fill="#12131A" stroke="#2F3546"/>
    <g transform="translate(545 309)">
      <g transform="scale(0.17)">
        <g transform="translate(-64 -64)">
          <path fill="#ea4535" d="M80.6 40.3h.4l-.2-.2l14-14v-.3c-11.8-10.4-28.1-14-43.2-9.5C36.5 20.8 24.9 32.8 20.7 48c.2-.1.5-.2.8-.2c5.2-3.4 11.4-5.4 17.9-5.4c2.2 0 4.3.2 6.4.6c.1-.1.2-.1.3-.1c9-9.9 24.2-11.1 34.6-2.6h-.1z"/><path fill="#557ebf" d="M108.1 47.8c-2.3-8.5-7.1-16.2-13.8-22.1L80 39.9c6 4.9 9.5 12.3 9.3 20v2.5c16.9 0 16.9 25.2 0 25.2H63.9v20h-.1l.1.2h25.4c14.6.1 27.5-9.3 31.8-23.1c4.3-13.8-1-28.8-13-36.9z"/><path fill="#36a852" d="M39 107.9h26.3V87.7H39c-1.9 0-3.7-.4-5.4-1.1l-15.2 14.6v.2c6 4.3 13.2 6.6 20.7 6.6z"/><path fill="#f9bc15" d="M40.2 41.9c-14.9.1-28.1 9.3-32.9 22.8c-4.8 13.6 0 28.5 11.8 37.3l15.6-14.9c-8.6-3.7-10.6-14.5-4-20.8c6.6-6.4 17.8-4.4 21.7 3.8L68 55.2C61.4 46.9 51.1 42 40.2 42.1z"/>
        </g>
      </g>
    </g>
    <rect x="580" y="286" width="46" height="46" rx="14" fill="#12131A" stroke="#2F3546"/>
    <g transform="translate(603 309)">
      <g transform="scale(0.94)">
        <g transform="translate(-12 -12)">
          <path fill="#326CE5" d="M10.204 14.35l.007.01-.999 2.413a5.171 5.171 0 0 1-2.075-2.597l2.578-.437.004.005a.44.44 0 0 1 .484.606zm-.833-2.129a.44.44 0 0 0 .173-.756l.002-.011L7.585 9.7a5.143 5.143 0 0 0-.73 3.255l2.514-.725.002-.009zm1.145-1.98a.44.44 0 0 0 .699-.337l.01-.005.15-2.62a5.144 5.144 0 0 0-3.01 1.442l2.147 1.523.004-.002zm.76 2.75l.723.349.722-.347.18-.78-.5-.623h-.804l-.5.623.179.779zm1.5-3.095a.44.44 0 0 0 .7.336l.008.003 2.134-1.513a5.188 5.188 0 0 0-2.992-1.442l.148 2.615.002.001zm10.876 5.97l-5.773 7.181a1.6 1.6 0 0 1-1.248.594l-9.261.003a1.6 1.6 0 0 1-1.247-.596l-5.776-7.18a1.583 1.583 0 0 1-.307-1.34L2.1 5.573c.108-.47.425-.864.863-1.073L11.305.513a1.606 1.606 0 0 1 1.385 0l8.345 3.985c.438.209.755.604.863 1.073l2.062 8.955c.108.47-.005.963-.308 1.34zm-3.289-2.057c-.042-.01-.103-.026-.145-.034-.174-.033-.315-.025-.479-.038-.35-.037-.638-.067-.895-.148-.105-.04-.18-.165-.216-.216l-.201-.059a6.45 6.45 0 0 0-.105-2.332 6.465 6.465 0 0 0-.936-2.163c.052-.047.15-.133.177-.159.008-.09.001-.183.094-.282.197-.185.444-.338.743-.522.142-.084.273-.137.415-.242.032-.024.076-.062.11-.089.24-.191.295-.52.123-.736-.172-.216-.506-.236-.745-.045-.034.027-.08.062-.111.088-.134.116-.217.23-.33.35-.246.25-.45.458-.673.609-.097.056-.239.037-.303.033l-.19.135a6.545 6.545 0 0 0-4.146-2.003l-.012-.223c-.065-.062-.143-.115-.163-.25-.022-.268.015-.557.057-.905.023-.163.061-.298.068-.475.001-.04-.001-.099-.001-.142 0-.306-.224-.555-.5-.555-.275 0-.499.249-.499.555l.001.014c0 .041-.002.092 0 .128.006.177.044.312.067.475.042.348.078.637.056.906a.545.545 0 0 1-.162.258l-.012.211a6.424 6.424 0 0 0-4.166 2.003 8.373 8.373 0 0 1-.18-.128c-.09.012-.18.04-.297-.029-.223-.15-.427-.358-.673-.608-.113-.12-.195-.234-.329-.349-.03-.026-.077-.062-.111-.088a.594.594 0 0 0-.348-.132.481.481 0 0 0-.398.176c-.172.216-.117.546.123.737l.007.005.104.083c.142.105.272.159.414.242.299.185.546.338.743.522.076.082.09.226.1.288l.16.143a6.462 6.462 0 0 0-1.02 4.506l-.208.06c-.055.072-.133.184-.215.217-.257.081-.546.11-.895.147-.164.014-.305.006-.48.039-.037.007-.09.02-.133.03l-.004.002-.007.002c-.295.071-.484.342-.423.608.061.267.349.429.645.365l.007-.001.01-.003.129-.029c.17-.046.294-.113.448-.172.33-.118.604-.217.87-.256.112-.009.23.069.288.101l.217-.037a6.5 6.5 0 0 0 2.88 3.596l-.09.218c.033.084.069.199.044.282-.097.252-.263.517-.452.813-.091.136-.185.242-.268.399-.02.037-.045.095-.064.134-.128.275-.034.591.213.71.248.12.556-.007.69-.282v-.002c.02-.039.046-.09.062-.127.07-.162.094-.301.144-.458.132-.332.205-.68.387-.897.05-.06.13-.082.215-.105l.113-.205a6.453 6.453 0 0 0 4.609.012l.106.192c.086.028.18.042.256.155.136.232.229.507.342.84.05.156.074.295.145.457.016.037.043.09.062.129.133.276.442.402.69.282.247-.118.341-.435.213-.71-.02-.039-.045-.096-.065-.134-.083-.156-.177-.261-.268-.398-.19-.296-.346-.541-.443-.793-.04-.13.007-.21.038-.294-.018-.022-.059-.144-.083-.202a6.499 6.499 0 0 0 2.88-3.622c.064.01.176.03.213.038.075-.05.144-.114.28-.104.266.039.54.138.87.256.154.06.277.128.448.173.036.01.088.019.13.028l.009.003.007.001c.297.064.584-.098.645-.365.06-.266-.128-.537-.423-.608zM16.4 9.701l-1.95 1.746v.005a.44.44 0 0 0 .173.757l.003.01 2.526.728a5.199 5.199 0 0 0-.108-1.674A5.208 5.208 0 0 0 16.4 9.7zm-4.013 5.325a.437.437 0 0 0-.404-.232.44.44 0 0 0-.372.233h-.002l-1.268 2.292a5.164 5.164 0 0 0 3.326.003l-1.27-2.296h-.01zm1.888-1.293a.44.44 0 0 0-.27.036.44.44 0 0 0-.214.572l-.003.004 1.01 2.438a5.15 5.15 0 0 0 2.081-2.615l-2.6-.44-.004.005z"/>
        </g>
      </g>
    </g>
    <rect x="638" y="286" width="46" height="46" rx="14" fill="#12131A" stroke="#2F3546"/>
    <g transform="translate(661 309)">
      <g transform="scale(0.94)">
        <g transform="translate(-12 -12)">
          <path fill="#4169E1" d="M23.5594 14.7228a.5269.5269 0 0 0-.0563-.1191c-.139-.2632-.4768-.3418-1.0074-.2321-1.6533.3411-2.2935.1312-2.5256-.0191 1.342-2.0482 2.445-4.522 3.0411-6.8297.2714-1.0507.7982-3.5237.1222-4.7316a1.5641 1.5641 0 0 0-.1509-.235C21.6931.9086 19.8007.0248 17.5099.0005c-1.4947-.0158-2.7705.3461-3.1161.4794a9.449 9.449 0 0 0-.5159-.0816 8.044 8.044 0 0 0-1.3114-.1278c-1.1822-.0184-2.2038.2642-3.0498.8406-.8573-.3211-4.7888-1.645-7.2219.0788C.9359 2.1526.3086 3.8733.4302 6.3043c.0409.818.5069 3.334 1.2423 5.7436.4598 1.5065.9387 2.7019 1.4334 3.582.553.9942 1.1259 1.5933 1.7143 1.7895.4474.1491 1.1327.1441 1.8581-.7279.8012-.9635 1.5903-1.8258 1.9446-2.2069.4351.2355.9064.3625 1.39.3772a.0569.0569 0 0 0 .0004.0041 11.0312 11.0312 0 0 0-.2472.3054c-.3389.4302-.4094.5197-1.5002.7443-.3102.064-1.1344.2339-1.1464.8115-.0025.1224.0329.2309.0919.3268.2269.4231.9216.6097 1.015.6331 1.3345.3335 2.5044.092 3.3714-.6787-.017 2.231.0775 4.4174.3454 5.0874.2212.5529.7618 1.9045 2.4692 1.9043.2505 0 .5263-.0291.8296-.0941 1.7819-.3821 2.5557-1.1696 2.855-2.9059.1503-.8707.4016-2.8753.5388-4.1012.0169-.0703.0357-.1207.057-.1362.0007-.0005.0697-.0471.4272.0307a.3673.3673 0 0 0 .0443.0068l.2539.0223.0149.001c.8468.0384 1.9114-.1426 2.5312-.4308.6438-.2988 1.8057-1.0323 1.5951-1.6698zM2.371 11.8765c-.7435-2.4358-1.1779-4.8851-1.2123-5.5719-.1086-2.1714.4171-3.6829 1.5623-4.4927 1.8367-1.2986 4.8398-.5408 6.108-.13-.0032.0032-.0066.0061-.0098.0094-2.0238 2.044-1.9758 5.536-1.9708 5.7495-.0002.0823.0066.1989.0162.3593.0348.5873.0996 1.6804-.0735 2.9184-.1609 1.1504.1937 2.2764.9728 3.0892.0806.0841.1648.1631.2518.2374-.3468.3714-1.1004 1.1926-1.9025 2.1576-.5677.6825-.9597.5517-1.0886.5087-.3919-.1307-.813-.5871-1.2381-1.3223-.4796-.839-.9635-2.0317-1.4155-3.5126zm6.0072 5.0871c-.1711-.0428-.3271-.1132-.4322-.1772.0889-.0394.2374-.0902.4833-.1409 1.2833-.2641 1.4815-.4506 1.9143-1.0002.0992-.126.2116-.2687.3673-.4426a.3549.3549 0 0 0 .0737-.1298c.1708-.1513.2724-.1099.4369-.0417.156.0646.3078.26.3695.4752.0291.1016.0619.2945-.0452.4444-.9043 1.2658-2.2216 1.2494-3.1676 1.0128zm2.094-3.988-.0525.141c-.133.3566-.2567.6881-.3334 1.003-.6674-.0021-1.3168-.2872-1.8105-.8024-.6279-.6551-.9131-1.5664-.7825-2.5004.1828-1.3079.1153-2.4468.079-3.0586-.005-.0857-.0095-.1607-.0122-.2199.2957-.2621 1.6659-.9962 2.6429-.7724.4459.1022.7176.4057.8305.928.5846 2.7038.0774 3.8307-.3302 4.7363-.084.1866-.1633.3629-.2311.5454zm7.3637 4.5725c-.0169.1768-.0358.376-.0618.5959l-.146.4383a.3547.3547 0 0 0-.0182.1077c-.0059.4747-.054.6489-.115.8693-.0634.2292-.1353.4891-.1794 1.0575-.11 1.4143-.8782 2.2267-2.4172 2.5565-1.5155.3251-1.7843-.4968-2.0212-1.2217a6.5824 6.5824 0 0 0-.0769-.2266c-.2154-.5858-.1911-1.4119-.1574-2.5551.0165-.5612-.0249-1.9013-.3302-2.6462.0044-.2932.0106-.5909.019-.8918a.3529.3529 0 0 0-.0153-.1126 1.4927 1.4927 0 0 0-.0439-.208c-.1226-.4283-.4213-.7866-.7797-.9351-.1424-.059-.4038-.1672-.7178-.0869.067-.276.1831-.5875.309-.9249l.0529-.142c.0595-.16.134-.3257.213-.5012.4265-.9476 1.0106-2.2453.3766-5.1772-.2374-1.0981-1.0304-1.6343-2.2324-1.5098-.7207.0746-1.3799.3654-1.7088.5321a5.6716 5.6716 0 0 0-.1958.1041c.0918-1.1064.4386-3.1741 1.7357-4.4823a4.0306 4.0306 0 0 1 .3033-.276.3532.3532 0 0 0 .1447-.0644c.7524-.5706 1.6945-.8506 2.802-.8325.4091.0067.8017.0339 1.1742.081 1.939.3544 3.2439 1.4468 4.0359 2.3827.8143.9623 1.2552 1.9315 1.4312 2.4543-1.3232-.1346-2.2234.1268-2.6797.779-.9926 1.4189.543 4.1729 1.2811 5.4964.1353.2426.2522.4522.2889.5413.2403.5825.5515.9713.7787 1.2552.0696.087.1372.1714.1885.245-.4008.1155-1.1208.3825-1.0552 1.717-.0123.1563-.0423.4469-.0834.8148-.0461.2077-.0702.4603-.0994.7662zm.8905-1.6211c-.0405-.8316.2691-.9185.5967-1.0105a2.8566 2.8566 0 0 0 .135-.0406 1.202 1.202 0 0 0 .1342.103c.5703.3765 1.5823.4213 3.0068.1344-.2016.1769-.5189.3994-.9533.6011-.4098.1903-1.0957.333-1.7473.3636-.7197.0336-1.0859-.0807-1.1721-.151zm.5695-9.2712c-.0059.3508-.0542.6692-.1054 1.0017-.055.3576-.112.7274-.1264 1.1762-.0142.4368.0404.8909.0932 1.3301.1066.887.216 1.8003-.2075 2.7014a3.5272 3.5272 0 0 1-.1876-.3856c-.0527-.1276-.1669-.3326-.3251-.6162-.6156-1.1041-2.0574-3.6896-1.3193-4.7446.3795-.5427 1.3408-.5661 2.1781-.463zm.2284 7.0137a12.3762 12.3762 0 0 0-.0853-.1074l-.0355-.0444c.7262-1.1995.5842-2.3862.4578-3.4385-.0519-.4318-.1009-.8396-.0885-1.2226.0129-.4061.0666-.7543.1185-1.0911.0639-.415.1288-.8443.1109-1.3505.0134-.0531.0188-.1158.0118-.1902-.0457-.4855-.5999-1.938-1.7294-3.253-.6076-.7073-1.4896-1.4972-2.6889-2.0395.5251-.1066 1.2328-.2035 2.0244-.1859 2.0515.0456 3.6746.8135 4.8242 2.2824a.908.908 0 0 1 .0667.1002c.7231 1.3556-.2762 6.2751-2.9867 10.5405zm-8.8166-6.1162c-.025.1794-.3089.4225-.6211.4225a.5821.5821 0 0 1-.0809-.0056c-.1873-.026-.3765-.144-.5059-.3156-.0458-.0605-.1203-.178-.1055-.2844.0055-.0401.0261-.0985.0925-.1488.1182-.0894.3518-.1226.6096-.0867.3163.0441.6426.1938.6113.4186zm7.9305-.4114c.0111.0792-.049.201-.1531.3102-.0683.0717-.212.1961-.4079.2232a.5456.5456 0 0 1-.075.0052c-.2935 0-.5414-.2344-.5607-.3717-.024-.1765.2641-.3106.5611-.352.297-.0414.6111.0088.6356.1851z"/>
        </g>
      </g>
    </g>
    <rect x="696" y="286" width="46" height="46" rx="14" fill="#12131A" stroke="#2F3546"/>
    <g transform="translate(719 309)">
      <g transform="scale(0.94)">
        <g transform="translate(-12 -12)">
          <path fill="#2496ED" d="M13.983 11.078h2.119a.186.186 0 00.186-.185V9.006a.186.186 0 00-.186-.186h-2.119a.185.185 0 00-.185.185v1.888c0 .102.083.185.185.185m-2.954-5.43h2.118a.186.186 0 00.186-.186V3.574a.186.186 0 00-.186-.185h-2.118a.185.185 0 00-.185.185v1.888c0 .102.082.185.185.185m0 2.716h2.118a.187.187 0 00.186-.186V6.29a.186.186 0 00-.186-.185h-2.118a.185.185 0 00-.185.185v1.887c0 .102.082.185.185.186m-2.93 0h2.12a.186.186 0 00.184-.186V6.29a.185.185 0 00-.185-.185H8.1a.185.185 0 00-.185.185v1.887c0 .102.083.185.185.186m-2.964 0h2.119a.186.186 0 00.185-.186V6.29a.185.185 0 00-.185-.185H5.136a.186.186 0 00-.186.185v1.887c0 .102.084.185.186.186m5.893 2.715h2.118a.186.186 0 00.186-.185V9.006a.186.186 0 00-.186-.186h-2.118a.185.185 0 00-.185.185v1.888c0 .102.082.185.185.185m-2.93 0h2.12a.185.185 0 00.184-.185V9.006a.185.185 0 00-.184-.186h-2.12a.185.185 0 00-.184.185v1.888c0 .102.083.185.185.185m-2.964 0h2.119a.185.185 0 00.185-.185V9.006a.185.185 0 00-.184-.186h-2.12a.186.186 0 00-.186.186v1.887c0 .102.084.185.186.185m-2.92 0h2.12a.185.185 0 00.184-.185V9.006a.185.185 0 00-.184-.186h-2.12a.185.185 0 00-.184.185v1.888c0 .102.082.185.185.185M23.763 9.89c-.065-.051-.672-.51-1.954-.51-.338.001-.676.03-1.01.087-.248-1.7-1.653-2.53-1.716-2.566l-.344-.199-.226.327c-.284.438-.49.922-.612 1.43-.23.97-.09 1.882.403 2.661-.595.332-1.55.413-1.744.42H.751a.751.751 0 00-.75.748 11.376 11.376 0 00.692 4.062c.545 1.428 1.355 2.48 2.41 3.124 1.18.723 3.1 1.137 5.275 1.137.983.003 1.963-.086 2.93-.266a12.248 12.248 0 003.823-1.389c.98-.567 1.86-1.288 2.61-2.136 1.252-1.418 1.998-2.997 2.553-4.4h.221c1.372 0 2.215-.549 2.68-1.009.309-.293.55-.65.707-1.046l.098-.288Z"/>
        </g>
      </g>
    </g>
    <rect x="754" y="286" width="46" height="46" rx="14" fill="#12131A" stroke="#2F3546"/>
    <g transform="translate(777 309)">
      <g transform="scale(0.92)">
        <g transform="translate(-12 -12)">
          <path fill="#4FC08D" d="M24,1.61H14.06L12,5.16,9.94,1.61H0L12,22.39ZM12,14.08,5.16,2.23H9.59L12,6.41l2.41-4.18h4.43Z"/>
        </g>
      </g>
    </g>
    <rect x="812" y="286" width="46" height="46" rx="14" fill="#12131A" stroke="#2F3546"/>
    <g transform="translate(835 309)">
      <g transform="scale(0.155)">
        <g transform="translate(-64 -64)">
          <path fill="#DD0031" d="m64 15.36l-47.668 17l7.27 63.027L64 117.762l40.398-22.375l7.27-63.028Zm0 0"/><path fill="#C3002F" d="M64 15.36v11.367v-.051v91.086l40.398-22.375l7.27-63.028Zm0 0"/><path fill="#FFF" d="M64 26.676L34.203 93.492h11.11L51.3 78.54h25.293l5.992 14.953h11.11Zm8.703 42.648H55.297L64 48.383Zm0 0"/>
        </g>
      </g>
    </g>
    <rect x="870" y="286" width="46" height="46" rx="14" fill="#12131A" stroke="#2F3546"/>
    <g transform="translate(893 309)">
      <g transform="scale(0.9)">
        <g transform="translate(-12 -12)">
          <path fill="#3178C6" d="M1.125 0C.502 0 0 .502 0 1.125v21.75C0 23.498.502 24 1.125 24h21.75c.623 0 1.125-.502 1.125-1.125V1.125C24 .502 23.498 0 22.875 0zm17.363 9.75c.612 0 1.154.037 1.627.111a6.38 6.38 0 0 1 1.306.34v2.458a3.95 3.95 0 0 0-.643-.361 5.093 5.093 0 0 0-.717-.26 5.453 5.453 0 0 0-1.426-.2c-.3 0-.573.028-.819.086a2.1 2.1 0 0 0-.623.242c-.17.104-.3.229-.393.374a.888.888 0 0 0-.14.49c0 .196.053.373.156.529.104.156.252.304.443.444s.423.276.696.41c.273.135.582.274.926.416.47.197.892.407 1.266.628.374.222.695.473.963.753.268.279.472.598.614.957.142.359.214.776.214 1.253 0 .657-.125 1.21-.373 1.656a3.033 3.033 0 0 1-1.012 1.085 4.38 4.38 0 0 1-1.487.596c-.566.12-1.163.18-1.79.18a9.916 9.916 0 0 1-1.84-.164 5.544 5.544 0 0 1-1.512-.493v-2.63a5.033 5.033 0 0 0 3.237 1.2c.333 0 .624-.03.872-.09.249-.06.456-.144.623-.25.166-.108.29-.234.373-.38a1.023 1.023 0 0 0-.074-1.089 2.12 2.12 0 0 0-.537-.5 5.597 5.597 0 0 0-.807-.444 27.72 27.72 0 0 0-1.007-.436c-.918-.383-1.602-.852-2.053-1.405-.45-.553-.676-1.222-.676-2.005 0-.614.123-1.141.369-1.582.246-.441.58-.804 1.004-1.089a4.494 4.494 0 0 1 1.47-.629 7.536 7.536 0 0 1 1.77-.201zm-15.113.188h9.563v2.166H9.506v9.646H6.789v-9.646H3.375z"/>
        </g>
      </g>
    </g>
  </g>

  <g opacity="0.46">
    <path d="M1116 98L1182 138L1246 110L1322 168L1418 124" stroke="#F5F0E8" stroke-opacity="0.16" stroke-width="2"/>
    <path d="M1116 286C1152 252 1188 242 1222 250C1258 258 1292 250 1328 214C1352 190 1382 180 1418 182" stroke="#E8A838" stroke-width="4" stroke-linecap="round"/>
    <path d="M1182 138L1222 250" stroke="#56C4B8" stroke-opacity="0.18" stroke-width="2"/>
    <path d="M1246 110L1328 214" stroke="#C77DFF" stroke-opacity="0.14" stroke-width="2"/>
    <circle cx="1116" cy="98" r="4.5" fill="#E8A838"/>
    <circle cx="1182" cy="138" r="4.5" fill="#56C4B8"/>
    <circle cx="1246" cy="110" r="4.5" fill="#F5F0E8" fill-opacity="0.75"/>
    <circle cx="1322" cy="168" r="4.5" fill="#C77DFF"/>
    <circle cx="1418" cy="124" r="4.5" fill="#56C4B8"/>
    <circle cx="1228" cy="250" r="5.5" fill="#56C4B8"/>
    <circle cx="1328" cy="214" r="5.5" fill="#C77DFF"/>
  </g>

  <g opacity="0.82">
    <text x="1120" y="330" fill="#9898AC" font-family="JetBrains Mono, Menlo, Monaco, Consolas, monospace" font-size="14" font-weight="700" letter-spacing="1.6">BACKEND / API / CLOUD / FULL-STACK</text>
  </g>
</svg>
